<mxfile host="app.diagrams.net" modified="2023-12-22T18:23:13.128Z" agent="Mozilla/5.0 (Windows NT 10.0; Win64; x64) AppleWebKit/537.36 (KHTML, like Gecko) Chrome/120.0.0.0 Safari/537.36" etag="g30fSla7SF-ZFKD9Sie0" version="22.1.11" type="device">
  <diagram name="Page-1" id="MIF0Vb71k7gxBIaq7aiF">
    <mxGraphModel dx="1467" dy="797" grid="1" gridSize="10" guides="1" tooltips="1" connect="1" arrows="1" fold="1" page="1" pageScale="1" pageWidth="827" pageHeight="1169" math="0" shadow="0">
      <root>
        <mxCell id="0" />
        <mxCell id="1" parent="0" />
        <mxCell id="ngn3Fu3llOTl33DVyMuz-3" value="InputOutputHandler" style="swimlane;fontStyle=1;align=center;verticalAlign=top;childLayout=stackLayout;horizontal=1;startSize=26;horizontalStack=0;resizeParent=1;resizeParentMax=0;resizeLast=0;collapsible=1;marginBottom=0;whiteSpace=wrap;html=1;" vertex="1" parent="1">
          <mxGeometry x="20" y="90" width="290" height="240" as="geometry" />
        </mxCell>
        <mxCell id="ngn3Fu3llOTl33DVyMuz-4" value="travelAgencyr: travelPartner" style="text;strokeColor=none;fillColor=none;align=left;verticalAlign=top;spacingLeft=4;spacingRight=4;overflow=hidden;rotatable=0;points=[[0,0.5],[1,0.5]];portConstraint=eastwest;whiteSpace=wrap;html=1;" vertex="1" parent="ngn3Fu3llOTl33DVyMuz-3">
          <mxGeometry y="26" width="290" height="26" as="geometry" />
        </mxCell>
        <mxCell id="ngn3Fu3llOTl33DVyMuz-5" value="" style="line;strokeWidth=1;fillColor=none;align=left;verticalAlign=middle;spacingTop=-1;spacingLeft=3;spacingRight=3;rotatable=0;labelPosition=right;points=[];portConstraint=eastwest;strokeColor=inherit;" vertex="1" parent="ngn3Fu3llOTl33DVyMuz-3">
          <mxGeometry y="52" width="290" height="8" as="geometry" />
        </mxCell>
        <mxCell id="ngn3Fu3llOTl33DVyMuz-6" value="InputOutputHandler(travelPartner tr)&lt;br&gt;showPrompt(): void&lt;br&gt;addPackage(Scanner sc): void&lt;br&gt;addPassenger(Scanner&amp;nbsp; sc): void&lt;br&gt;addDestination(Scanner&amp;nbsp; sc): void&lt;br&gt;addDestinationToPackage(Scanner&amp;nbsp; sc): void&lt;br&gt;addActivityToDestination(Scanner&amp;nbsp; sc): void&lt;br&gt;addPassengerToActivity(Scanner&amp;nbsp; sc): void&lt;br&gt;printItinerary(Scanner&amp;nbsp; sc): void&lt;br&gt;printPassengerListForPackage(Scanner&amp;nbsp; sc): void&lt;br&gt;addPassengerDetails(Scanner&amp;nbsp; sc): void&lt;br&gt;printAvailableActivities(): void&lt;br&gt;processinput(): void" style="text;strokeColor=none;fillColor=none;align=left;verticalAlign=top;spacingLeft=4;spacingRight=4;overflow=hidden;rotatable=0;points=[[0,0.5],[1,0.5]];portConstraint=eastwest;whiteSpace=wrap;html=1;" vertex="1" parent="ngn3Fu3llOTl33DVyMuz-3">
          <mxGeometry y="60" width="290" height="180" as="geometry" />
        </mxCell>
        <mxCell id="ngn3Fu3llOTl33DVyMuz-7" value="Activity" style="swimlane;fontStyle=1;align=center;verticalAlign=top;childLayout=stackLayout;horizontal=1;startSize=26;horizontalStack=0;resizeParent=1;resizeParentMax=0;resizeLast=0;collapsible=1;marginBottom=0;whiteSpace=wrap;html=1;" vertex="1" parent="1">
          <mxGeometry x="340" y="90" width="190" height="260" as="geometry" />
        </mxCell>
        <mxCell id="ngn3Fu3llOTl33DVyMuz-8" value="name: String&lt;br&gt;description: String&lt;br&gt;spot: Destination&lt;br&gt;cost: double&lt;br&gt;capacity: int&lt;br&gt;filledSlots: int" style="text;strokeColor=none;fillColor=none;align=left;verticalAlign=top;spacingLeft=4;spacingRight=4;overflow=hidden;rotatable=0;points=[[0,0.5],[1,0.5]];portConstraint=eastwest;whiteSpace=wrap;html=1;" vertex="1" parent="ngn3Fu3llOTl33DVyMuz-7">
          <mxGeometry y="26" width="190" height="94" as="geometry" />
        </mxCell>
        <mxCell id="ngn3Fu3llOTl33DVyMuz-9" value="" style="line;strokeWidth=1;fillColor=none;align=left;verticalAlign=middle;spacingTop=-1;spacingLeft=3;spacingRight=3;rotatable=0;labelPosition=right;points=[];portConstraint=eastwest;strokeColor=inherit;" vertex="1" parent="ngn3Fu3llOTl33DVyMuz-7">
          <mxGeometry y="120" width="190" height="8" as="geometry" />
        </mxCell>
        <mxCell id="ngn3Fu3llOTl33DVyMuz-10" value="Activity(String name, String desc,&amp;nbsp; Destination spot, double cost, int capacity, int filledSlots)&lt;br&gt;updateSlots(): void&lt;br&gt;selectActivity(): void&lt;br&gt;addPassenger(Passenger): void&lt;br&gt;getPrice(Membership.type): double&lt;br&gt;" style="text;strokeColor=none;fillColor=none;align=left;verticalAlign=top;spacingLeft=4;spacingRight=4;overflow=hidden;rotatable=0;points=[[0,0.5],[1,0.5]];portConstraint=eastwest;whiteSpace=wrap;html=1;" vertex="1" parent="ngn3Fu3llOTl33DVyMuz-7">
          <mxGeometry y="128" width="190" height="132" as="geometry" />
        </mxCell>
        <mxCell id="ngn3Fu3llOTl33DVyMuz-14" value="TravelAgency" style="swimlane;fontStyle=1;align=center;verticalAlign=top;childLayout=stackLayout;horizontal=1;startSize=26;horizontalStack=0;resizeParent=1;resizeParentMax=0;resizeLast=0;collapsible=1;marginBottom=0;whiteSpace=wrap;html=1;" vertex="1" parent="1">
          <mxGeometry x="550" y="90" width="270" height="270" as="geometry" />
        </mxCell>
        <mxCell id="ngn3Fu3llOTl33DVyMuz-15" value="passengers: ArrayList&amp;lt;Passengers&amp;gt;&lt;br&gt;packages: Arraylist&amp;lt;TravelPackages&amp;gt;&lt;br&gt;activitiesMap: Map&amp;lt;string,Activity&amp;gt;&lt;br&gt;" style="text;strokeColor=none;fillColor=none;align=left;verticalAlign=top;spacingLeft=4;spacingRight=4;overflow=hidden;rotatable=0;points=[[0,0.5],[1,0.5]];portConstraint=eastwest;whiteSpace=wrap;html=1;" vertex="1" parent="ngn3Fu3llOTl33DVyMuz-14">
          <mxGeometry y="26" width="270" height="64" as="geometry" />
        </mxCell>
        <mxCell id="ngn3Fu3llOTl33DVyMuz-16" value="" style="line;strokeWidth=1;fillColor=none;align=left;verticalAlign=middle;spacingTop=-1;spacingLeft=3;spacingRight=3;rotatable=0;labelPosition=right;points=[];portConstraint=eastwest;strokeColor=inherit;" vertex="1" parent="ngn3Fu3llOTl33DVyMuz-14">
          <mxGeometry y="90" width="270" height="8" as="geometry" />
        </mxCell>
        <mxCell id="ngn3Fu3llOTl33DVyMuz-17" value="TravelAgency()&lt;br&gt;getPassengerByNumber(String): Passenger&lt;br&gt;getDestinationByName(String packageName,Striing destinationName): Destination&lt;br&gt;addPassenger(Passenger): void&lt;br&gt;addPackage(TravelPackage): void&lt;br&gt;isPassengerPresent(String): boolean&lt;br&gt;isPackageNamePresent(String): boolean&lt;br&gt;getPassengerByName(String): Passenger" style="text;strokeColor=none;fillColor=none;align=left;verticalAlign=top;spacingLeft=4;spacingRight=4;overflow=hidden;rotatable=0;points=[[0,0.5],[1,0.5]];portConstraint=eastwest;whiteSpace=wrap;html=1;" vertex="1" parent="ngn3Fu3llOTl33DVyMuz-14">
          <mxGeometry y="98" width="270" height="172" as="geometry" />
        </mxCell>
        <mxCell id="ngn3Fu3llOTl33DVyMuz-18" value="Destination" style="swimlane;fontStyle=1;align=center;verticalAlign=top;childLayout=stackLayout;horizontal=1;startSize=26;horizontalStack=0;resizeParent=1;resizeParentMax=0;resizeLast=0;collapsible=1;marginBottom=0;whiteSpace=wrap;html=1;" vertex="1" parent="1">
          <mxGeometry x="110" y="370" width="200" height="130" as="geometry" />
        </mxCell>
        <mxCell id="ngn3Fu3llOTl33DVyMuz-20" value="" style="line;strokeWidth=1;fillColor=none;align=left;verticalAlign=middle;spacingTop=-1;spacingLeft=3;spacingRight=3;rotatable=0;labelPosition=right;points=[];portConstraint=eastwest;strokeColor=inherit;" vertex="1" parent="ngn3Fu3llOTl33DVyMuz-18">
          <mxGeometry y="26" width="200" height="8" as="geometry" />
        </mxCell>
        <mxCell id="ngn3Fu3llOTl33DVyMuz-21" value="Destination(name)&lt;br&gt;addActivities(Activity): void&lt;br&gt;" style="text;strokeColor=none;fillColor=none;align=left;verticalAlign=top;spacingLeft=4;spacingRight=4;overflow=hidden;rotatable=0;points=[[0,0.5],[1,0.5]];portConstraint=eastwest;whiteSpace=wrap;html=1;" vertex="1" parent="ngn3Fu3llOTl33DVyMuz-18">
          <mxGeometry y="34" width="200" height="52" as="geometry" />
        </mxCell>
        <mxCell id="ngn3Fu3llOTl33DVyMuz-19" value="name: String&lt;br&gt;ArrayList&amp;lt;Activities&amp;gt;: activities&lt;br&gt;" style="text;strokeColor=none;fillColor=none;align=left;verticalAlign=top;spacingLeft=4;spacingRight=4;overflow=hidden;rotatable=0;points=[[0,0.5],[1,0.5]];portConstraint=eastwest;whiteSpace=wrap;html=1;" vertex="1" parent="ngn3Fu3llOTl33DVyMuz-18">
          <mxGeometry y="86" width="200" height="44" as="geometry" />
        </mxCell>
        <mxCell id="ngn3Fu3llOTl33DVyMuz-22" value="Passenger" style="swimlane;fontStyle=1;align=center;verticalAlign=top;childLayout=stackLayout;horizontal=1;startSize=26;horizontalStack=0;resizeParent=1;resizeParentMax=0;resizeLast=0;collapsible=1;marginBottom=0;whiteSpace=wrap;html=1;" vertex="1" parent="1">
          <mxGeometry x="340" y="430" width="190" height="240" as="geometry" />
        </mxCell>
        <mxCell id="ngn3Fu3llOTl33DVyMuz-23" value="name: String&lt;br&gt;passengerNo:&amp;nbsp; String&lt;br&gt;memberType: Membership.type&lt;br&gt;acitivities: ArrayList&amp;lt;Activities&amp;gt;&lt;br&gt;balance: double" style="text;strokeColor=none;fillColor=none;align=left;verticalAlign=top;spacingLeft=4;spacingRight=4;overflow=hidden;rotatable=0;points=[[0,0.5],[1,0.5]];portConstraint=eastwest;whiteSpace=wrap;html=1;" vertex="1" parent="ngn3Fu3llOTl33DVyMuz-22">
          <mxGeometry y="26" width="190" height="84" as="geometry" />
        </mxCell>
        <mxCell id="ngn3Fu3llOTl33DVyMuz-24" value="" style="line;strokeWidth=1;fillColor=none;align=left;verticalAlign=middle;spacingTop=-1;spacingLeft=3;spacingRight=3;rotatable=0;labelPosition=right;points=[];portConstraint=eastwest;strokeColor=inherit;" vertex="1" parent="ngn3Fu3llOTl33DVyMuz-22">
          <mxGeometry y="110" width="190" height="8" as="geometry" />
        </mxCell>
        <mxCell id="ngn3Fu3llOTl33DVyMuz-25" value="Passenger(String name,String passnum, Membershiptype memType, ArrayList&amp;lt;Activity&amp;gt; activities,&amp;nbsp; double balance)&lt;br&gt;isPremiumMember(): boolean&lt;br&gt;generatePremiumPassenger(String name,String&amp;nbsp; passengerNo): Passenger&lt;br&gt;" style="text;strokeColor=none;fillColor=none;align=left;verticalAlign=top;spacingLeft=4;spacingRight=4;overflow=hidden;rotatable=0;points=[[0,0.5],[1,0.5]];portConstraint=eastwest;whiteSpace=wrap;html=1;" vertex="1" parent="ngn3Fu3llOTl33DVyMuz-22">
          <mxGeometry y="118" width="190" height="122" as="geometry" />
        </mxCell>
        <mxCell id="ngn3Fu3llOTl33DVyMuz-26" value="Membership" style="swimlane;fontStyle=1;align=center;verticalAlign=top;childLayout=stackLayout;horizontal=1;startSize=26;horizontalStack=0;resizeParent=1;resizeParentMax=0;resizeLast=0;collapsible=1;marginBottom=0;whiteSpace=wrap;html=1;" vertex="1" parent="1">
          <mxGeometry x="570" y="420" width="160" height="60" as="geometry" />
        </mxCell>
        <mxCell id="ngn3Fu3llOTl33DVyMuz-27" value="type:Enum" style="text;strokeColor=none;fillColor=none;align=left;verticalAlign=top;spacingLeft=4;spacingRight=4;overflow=hidden;rotatable=0;points=[[0,0.5],[1,0.5]];portConstraint=eastwest;whiteSpace=wrap;html=1;" vertex="1" parent="ngn3Fu3llOTl33DVyMuz-26">
          <mxGeometry y="26" width="160" height="26" as="geometry" />
        </mxCell>
        <mxCell id="ngn3Fu3llOTl33DVyMuz-28" value="" style="line;strokeWidth=1;fillColor=none;align=left;verticalAlign=middle;spacingTop=-1;spacingLeft=3;spacingRight=3;rotatable=0;labelPosition=right;points=[];portConstraint=eastwest;strokeColor=inherit;" vertex="1" parent="ngn3Fu3llOTl33DVyMuz-26">
          <mxGeometry y="52" width="160" height="8" as="geometry" />
        </mxCell>
        <mxCell id="ngn3Fu3llOTl33DVyMuz-30" value="TravelPackage" style="swimlane;fontStyle=1;align=center;verticalAlign=top;childLayout=stackLayout;horizontal=1;startSize=26;horizontalStack=0;resizeParent=1;resizeParentMax=0;resizeLast=0;collapsible=1;marginBottom=0;whiteSpace=wrap;html=1;" vertex="1" parent="1">
          <mxGeometry x="570" y="640" width="230" height="240" as="geometry" />
        </mxCell>
        <mxCell id="ngn3Fu3llOTl33DVyMuz-31" value="name: String&lt;br&gt;passengerCapacity: int&lt;br&gt;passengerList: ArrayList&amp;lt;Passenger&amp;gt;&lt;br&gt;destinations:ArrayList&amp;lt;Destination&amp;gt;" style="text;strokeColor=none;fillColor=none;align=left;verticalAlign=top;spacingLeft=4;spacingRight=4;overflow=hidden;rotatable=0;points=[[0,0.5],[1,0.5]];portConstraint=eastwest;whiteSpace=wrap;html=1;" vertex="1" parent="ngn3Fu3llOTl33DVyMuz-30">
          <mxGeometry y="26" width="230" height="84" as="geometry" />
        </mxCell>
        <mxCell id="ngn3Fu3llOTl33DVyMuz-32" value="" style="line;strokeWidth=1;fillColor=none;align=left;verticalAlign=middle;spacingTop=-1;spacingLeft=3;spacingRight=3;rotatable=0;labelPosition=right;points=[];portConstraint=eastwest;strokeColor=inherit;" vertex="1" parent="ngn3Fu3llOTl33DVyMuz-30">
          <mxGeometry y="110" width="230" height="8" as="geometry" />
        </mxCell>
        <mxCell id="ngn3Fu3llOTl33DVyMuz-33" value="TravelPackage(String name, int passengerCapacity)&lt;br&gt;getDestinationByName(String destName): Destination&lt;br&gt;addPassenger(Passenger): void&lt;br&gt;getCurrentStrength(): int&lt;br&gt;addDestination(Destination dest): void" style="text;strokeColor=none;fillColor=none;align=left;verticalAlign=top;spacingLeft=4;spacingRight=4;overflow=hidden;rotatable=0;points=[[0,0.5],[1,0.5]];portConstraint=eastwest;whiteSpace=wrap;html=1;" vertex="1" parent="ngn3Fu3llOTl33DVyMuz-30">
          <mxGeometry y="118" width="230" height="122" as="geometry" />
        </mxCell>
        <mxCell id="ngn3Fu3llOTl33DVyMuz-34" value="1" style="endArrow=open;html=1;endSize=12;startArrow=diamondThin;startSize=14;startFill=1;edgeStyle=orthogonalEdgeStyle;align=left;verticalAlign=bottom;rounded=0;entryX=0.75;entryY=1;entryDx=0;entryDy=0;entryPerimeter=0;" edge="1" parent="1" target="ngn3Fu3llOTl33DVyMuz-28">
          <mxGeometry x="-1" y="3" relative="1" as="geometry">
            <mxPoint x="530" y="510" as="sourcePoint" />
            <mxPoint x="690" y="510" as="targetPoint" />
            <Array as="points">
              <mxPoint x="530" y="520" />
              <mxPoint x="690" y="520" />
            </Array>
          </mxGeometry>
        </mxCell>
        <mxCell id="ngn3Fu3llOTl33DVyMuz-35" value="1" style="endArrow=open;html=1;endSize=12;startArrow=diamondThin;startSize=14;startFill=0;edgeStyle=orthogonalEdgeStyle;align=left;verticalAlign=bottom;rounded=0;entryX=0.665;entryY=1.025;entryDx=0;entryDy=0;entryPerimeter=0;exitX=-0.016;exitY=0.109;exitDx=0;exitDy=0;exitPerimeter=0;" edge="1" parent="1" source="ngn3Fu3llOTl33DVyMuz-33" target="ngn3Fu3llOTl33DVyMuz-25">
          <mxGeometry x="-1" y="3" relative="1" as="geometry">
            <mxPoint x="300" y="730" as="sourcePoint" />
            <mxPoint x="460" y="730" as="targetPoint" />
            <Array as="points">
              <mxPoint x="566" y="730" />
              <mxPoint x="466" y="730" />
            </Array>
          </mxGeometry>
        </mxCell>
        <mxCell id="ngn3Fu3llOTl33DVyMuz-36" value="1" style="endArrow=open;html=1;endSize=12;startArrow=diamondThin;startSize=14;startFill=0;edgeStyle=orthogonalEdgeStyle;align=left;verticalAlign=bottom;rounded=0;entryX=0;entryY=0.5;entryDx=0;entryDy=0;exitX=0;exitY=0.5;exitDx=0;exitDy=0;" edge="1" parent="1" target="ngn3Fu3llOTl33DVyMuz-21">
          <mxGeometry x="-1" y="-63" relative="1" as="geometry">
            <mxPoint x="570.0000000000002" y="698" as="sourcePoint" />
            <mxPoint x="56.59999999999991" y="580" as="targetPoint" />
            <Array as="points">
              <mxPoint x="530" y="698" />
              <mxPoint x="530" y="765" />
              <mxPoint x="60" y="765" />
              <mxPoint x="60" y="675" />
              <mxPoint x="57" y="675" />
              <mxPoint x="57" y="474" />
            </Array>
            <mxPoint x="-60" y="-43" as="offset" />
          </mxGeometry>
        </mxCell>
        <mxCell id="ngn3Fu3llOTl33DVyMuz-37" value="1" style="endArrow=open;html=1;endSize=12;startArrow=diamondThin;startSize=14;startFill=0;edgeStyle=orthogonalEdgeStyle;align=left;verticalAlign=bottom;rounded=0;exitX=0.5;exitY=0;exitDx=0;exitDy=0;entryX=0.463;entryY=1.01;entryDx=0;entryDy=0;entryPerimeter=0;" edge="1" parent="1" source="ngn3Fu3llOTl33DVyMuz-22" target="ngn3Fu3llOTl33DVyMuz-10">
          <mxGeometry x="-1" y="3" relative="1" as="geometry">
            <mxPoint x="370" y="390" as="sourcePoint" />
            <mxPoint x="530" y="390" as="targetPoint" />
            <Array as="points">
              <mxPoint x="435" y="400" />
              <mxPoint x="450" y="400" />
              <mxPoint x="450" y="351" />
            </Array>
          </mxGeometry>
        </mxCell>
        <mxCell id="ngn3Fu3llOTl33DVyMuz-39" value="1" style="endArrow=open;html=1;endSize=12;startArrow=diamondThin;startSize=14;startFill=1;edgeStyle=orthogonalEdgeStyle;align=left;verticalAlign=bottom;rounded=0;entryX=0.112;entryY=0.997;entryDx=0;entryDy=0;entryPerimeter=0;" edge="1" parent="1" source="ngn3Fu3llOTl33DVyMuz-33" target="ngn3Fu3llOTl33DVyMuz-25">
          <mxGeometry x="-1" y="3" relative="1" as="geometry">
            <mxPoint x="50" y="690" as="sourcePoint" />
            <mxPoint x="370" y="520" as="targetPoint" />
          </mxGeometry>
        </mxCell>
        <mxCell id="ngn3Fu3llOTl33DVyMuz-40" value="1" style="endArrow=open;html=1;endSize=12;startArrow=diamondThin;startSize=14;startFill=1;edgeStyle=orthogonalEdgeStyle;align=left;verticalAlign=bottom;rounded=0;exitX=0.75;exitY=0;exitDx=0;exitDy=0;entryX=0.307;entryY=1.017;entryDx=0;entryDy=0;entryPerimeter=0;" edge="1" parent="1" source="ngn3Fu3llOTl33DVyMuz-22" target="ngn3Fu3llOTl33DVyMuz-17">
          <mxGeometry x="-1" y="3" relative="1" as="geometry">
            <mxPoint x="480" y="400" as="sourcePoint" />
            <mxPoint x="640" y="400" as="targetPoint" />
            <Array as="points">
              <mxPoint x="483" y="400" />
              <mxPoint x="633" y="400" />
            </Array>
          </mxGeometry>
        </mxCell>
        <mxCell id="ngn3Fu3llOTl33DVyMuz-41" value="1" style="endArrow=open;html=1;endSize=12;startArrow=diamondThin;startSize=14;startFill=1;edgeStyle=orthogonalEdgeStyle;align=left;verticalAlign=bottom;rounded=0;entryX=0.943;entryY=1.027;entryDx=0;entryDy=0;entryPerimeter=0;exitX=0.75;exitY=0;exitDx=0;exitDy=0;" edge="1" parent="1" source="ngn3Fu3llOTl33DVyMuz-30" target="ngn3Fu3llOTl33DVyMuz-17">
          <mxGeometry x="-1" y="3" relative="1" as="geometry">
            <mxPoint x="300" y="780" as="sourcePoint" />
            <mxPoint x="760" y="600" as="targetPoint" />
            <Array as="points">
              <mxPoint x="743" y="500" />
              <mxPoint x="800" y="500" />
              <mxPoint x="800" y="365" />
            </Array>
          </mxGeometry>
        </mxCell>
        <mxCell id="ngn3Fu3llOTl33DVyMuz-42" value="1" style="endArrow=open;html=1;endSize=12;startArrow=diamondThin;startSize=14;startFill=1;edgeStyle=orthogonalEdgeStyle;align=left;verticalAlign=bottom;rounded=0;exitX=0.447;exitY=-0.008;exitDx=0;exitDy=0;exitPerimeter=0;entryX=0.5;entryY=0;entryDx=0;entryDy=0;" edge="1" parent="1" source="ngn3Fu3llOTl33DVyMuz-3" target="ngn3Fu3llOTl33DVyMuz-14">
          <mxGeometry x="-1" y="3" relative="1" as="geometry">
            <mxPoint x="253" y="54" as="sourcePoint" />
            <mxPoint x="413" y="54" as="targetPoint" />
            <Array as="points">
              <mxPoint x="150" y="54" />
              <mxPoint x="685" y="54" />
            </Array>
          </mxGeometry>
        </mxCell>
      </root>
    </mxGraphModel>
  </diagram>
</mxfile>
